<svg width="191" height="191" viewBox="0 0 191 191" fill="none" xmlns="http://www.w3.org/2000/svg">
<rect width="191" height="191" fill="#0A5ED9"/>
<path d="M59.5682 51.5173C56.1088 52.743 53.618 55.3346 52.511 58.8367C51.9921 60.3776 51.9575 64.1949 52.0266 95.7489L52.1304 130.945L52.9953 132.696C54.0677 134.938 56.1434 137.039 58.3574 138.124L60.0871 139H96.0653H132.043L133.773 138.124C135.987 137.039 138.063 134.938 139.135 132.696L140 130.945V95.0486V59.1519L139.135 57.4008C138.063 55.1595 135.987 53.0582 133.773 51.9725L132.043 51.097L96.584 51.027C64.9995 50.9569 60.952 50.992 59.5682 51.5173ZM105.579 68.0823V73.3354H85.1681H64.7573V68.0823V62.8291H85.1681H105.579V68.0823ZM127.373 68.0823V73.3354H118.378H109.384V68.0823V62.8291H118.378H127.373V68.0823ZM105.579 85.9429V91.1962H96.0653H86.5518V85.9429V80.69H96.0653H105.579V85.9429ZM105.579 103.804V109.057H96.0653H86.5518V103.804V98.5507H96.0653H105.579V103.804ZM105.579 121.664V126.918H96.0653H86.5518V121.664V116.411H96.0653H105.579V121.664Z" fill="white"/>
</svg>
